<svg width="25" height="24" viewBox="0 0 25 24" fill="none" xmlns="http://www.w3.org/2000/svg">
<path d="M7.6001 16C5.39096 16 3.6001 14.2091 3.6001 12C3.6001 9.95985 5.12745 8.27643 7.10109 8.03082C7.37512 7.99672 7.59747 7.77549 7.62472 7.5007C7.87526 4.9737 10.0072 3 12.6001 3C15.193 3 17.3249 4.9737 17.5755 7.5007C17.6027 7.7755 17.8251 7.99672 18.0991 8.03082C20.0727 8.27643 21.6001 9.95985 21.6001 12C21.6001 14.2091 19.8092 16 17.6001 16M7.6001 16H8.6001M7.6001 16L7.6001 19.5C7.6001 19.7761 7.82396 20 8.1001 20L17.1001 20C17.3762 20 17.6001 19.7761 17.6001 19.5L17.6001 16M17.6001 16H16.6001" stroke="#46AE4F" stroke-width="1.5" stroke-linecap="round"/>
</svg>
