<svg width="25" height="24" viewBox="0 0 25 24" fill="none" xmlns="http://www.w3.org/2000/svg">
<path d="M3.3999 19C3.3999 20.1046 4.29533 21 5.3999 21H8.3999C9.50447 21 10.3999 20.1046 10.3999 19V16C10.3999 14.8954 9.50447 14 8.3999 14H5.3999C4.29533 14 3.3999 14.8954 3.3999 16V19Z" stroke="#46AE4F" stroke-width="1.5"/>
<path d="M3.3999 7.99998C3.3999 9.10455 4.29533 9.99998 5.3999 9.99998H8.3999C9.50447 9.99998 10.3999 9.10455 10.3999 7.99998V4.99998C10.3999 3.89541 9.50447 2.99998 8.3999 2.99998H5.3999C4.29533 2.99998 3.3999 3.89541 3.3999 4.99998V7.99998Z" stroke="#46AE4F" stroke-width="1.5"/>
<path d="M14.3644 5.08577C13.5833 5.86682 13.5833 7.13315 14.3644 7.9142L16.4857 10.0355C17.2667 10.8166 18.5331 10.8166 19.3141 10.0355L21.4354 7.9142C22.2165 7.13315 22.2165 5.86682 21.4354 5.08577L19.3141 2.96445C18.5331 2.1834 17.2667 2.1834 16.4857 2.96445L14.3644 5.08577Z" stroke="#46AE4F" stroke-width="1.5"/>
<path d="M14.3999 19C14.3999 20.1046 15.2953 21 16.3999 21H19.3999C20.5045 21 21.3999 20.1046 21.3999 19V16C21.3999 14.8954 20.5045 14 19.3999 14H16.3999C15.2953 14 14.3999 14.8954 14.3999 16V19Z" stroke="#46AE4F" stroke-width="1.5"/>
</svg>
